# xmcd
#
# Track frame offsets: 
#        150
#        18679
#        30580
#        57291
#        74534
#        90896
#        114923
#
# Disc length: 1665 seconds
#
# Revision: 0
# Processed by: cddbd v1.5.1PL2 Copyright (c) Steve Scherf et al.
# Submitted via: ExactAudioCopy v0.95b3
#
DISCID=51067f07
DTITLE=The Madison Crawl - The Madison Crawl
DYEAR=2005
DGENRE=Blues
TTITLE0=Caldonia
TTITLE1=Do The Boogie
TTITLE2=Alligator Wine
TTITLE3=Rip It Up
TTITLE4=The Hideaway
TTITLE5=Drink, Drank, Drunk
TTITLE6=Justin's Blues
EXTD=
EXTT0=
EXTT1=
EXTT2=
EXTT3=
EXTT4=
EXTT5=
EXTT6=
PLAYORDER=
